<?xml version="1.0" encoding="UTF-8"?>
<svg version="1.1" xmlns="http://www.w3.org/2000/svg" width="225" height="150">
<path d="M0 0 C74.25 0 148.5 0 225 0 C225 49.5 225 99 225 150 C150.75 150 76.5 150 0 150 C0 100.5 0 51 0 0 Z " fill="#FDFDFD" transform="translate(0,0)"/>
<path d="M0 0 C8.51965453 4.97862583 14.77874991 12.6941664 18 22 C20.37901983 32.06895012 19.59191132 42.19662902 14.74609375 51.375 C8.99312596 60.65499164 1.51347142 66.2537189 -8.81640625 69.5859375 C-19.87316606 71.68256816 -30.19631806 70.13673639 -39.6875 64.25 C-47.50653919 58.70188176 -53.20687036 51.00120043 -55.61328125 41.60546875 C-57.36686385 29.79092742 -55.88231124 20.20968418 -49.15625 10.27734375 C-36.99326984 -4.76753656 -17.15714293 -9.13340444 0 0 Z " fill="#03479F" transform="translate(131,42)"/>
<path d="M0 0 C8.01379088 5.47990653 14.09231471 13.5703473 16.359375 23.05078125 C17.57651353 30.39669698 17.34763866 37.71098587 14.80078125 44.71484375 C14.47078125 44.71484375 14.14078125 44.71484375 13.80078125 44.71484375 C13.7028125 44.06257813 13.60484375 43.4103125 13.50390625 42.73828125 C12.4501006 36.57896889 11.4070966 31.44302557 6.1484375 27.46484375 C0.64000057 24.22061096 -4.93705388 23.79677946 -11.19921875 24.71484375 C-16.4341712 27.12292188 -20.06562935 31.51979773 -23.953125 35.69140625 C-28.56035445 39.84191904 -33.34040702 40.28197059 -39.34375 40.15234375 C-45.02065457 39.2825581 -49.03103483 36.28920461 -52.6796875 31.95703125 C-55.66204748 27.09161121 -55.69706029 22.23835215 -54.99609375 16.6796875 C-52.81537278 8.5661227 -46.10605588 3.0104003 -39.19921875 -1.28515625 C-38.56886719 -1.69894531 -37.93851563 -2.11273438 -37.2890625 -2.5390625 C-26.03290834 -8.76356393 -10.62353342 -6.20806837 0 0 Z " fill="#CC2F3B" transform="translate(133.19921875,43.28515625)"/>
<path d="M0 0 C4.04467152 1.34822384 5.26096666 4.00041901 7.44921875 7.44140625 C7.86669876 8.08367661 8.28417877 8.72594696 8.71430969 9.38768005 C10.04648465 11.4410397 11.3670609 13.50157842 12.6875 15.5625 C13.58843884 16.95556596 14.4901226 18.34815047 15.39257812 19.74023438 C17.60373601 23.15462875 19.80451976 26.57550578 22 30 C20.71034824 31.37562854 19.37310707 32.70766393 18 34 C17.34 34 16.68 34 16 34 C14.38535897 31.84459753 12.89662719 29.69108459 11.4296875 27.4375 C10.76805099 26.43867798 10.76805099 26.43867798 10.0930481 25.41967773 C8.68050123 23.28401422 7.27769638 21.14214309 5.875 19 C4.92120605 17.5542696 3.96678702 16.10895138 3.01171875 14.6640625 C0.66718909 11.11412381 -1.66862052 7.55858735 -4 4 C-2.68 2.68 -1.36 1.36 0 0 Z " fill="#0D0D0D" transform="translate(54,91)"/>
<path d="M0 0 C4.875 1.75 4.875 1.75 6 4 C-0.6 13.9 -7.2 23.8 -14 34 C-15.65 33.34 -17.3 32.68 -19 32 C-19 27.94732844 -17.027008 25.61428193 -14.84375 22.36328125 C-14.42202515 21.72384079 -14.00030029 21.08440033 -13.5657959 20.42558289 C-12.21692227 18.38357274 -10.85862224 16.34803381 -9.5 14.3125 C-8.58400773 12.92945197 -7.66863529 11.54599321 -6.75390625 10.16210938 C-4.50976964 6.76993113 -2.25715845 3.38352602 0 0 Z " fill="#0D0D0D" transform="translate(70,25)"/>
<path d="M0 0 C2.16874252 0.50603992 3.99967627 0.99983813 6 2 C4.51583664 6.2028497 2.35502736 9.72975252 -0.1328125 13.39453125 C-0.72786087 14.28285896 -0.72786087 14.28285896 -1.33493042 15.18913269 C-2.59395603 17.06654082 -3.85935594 18.93954899 -5.125 20.8125 C-5.9834986 22.09020888 -6.84157606 23.36820083 -7.69921875 24.64648438 C-9.79461948 27.76762002 -11.89574503 30.88482771 -14 34 C-15.9375 33.1875 -15.9375 33.1875 -18 32 C-18.33 31.01 -18.66 30.02 -19 29 C-17.73264951 26.66624589 -16.4287417 24.550845 -14.94140625 22.36328125 C-14.51826645 21.72384079 -14.09512665 21.08440033 -13.65916443 20.42558289 C-12.30319613 18.38131785 -10.93311902 16.3469639 -9.5625 14.3125 C-8.64163417 12.9296646 -7.72170004 11.54620826 -6.80273438 10.16210938 C-4.54591103 6.76743554 -2.27638712 3.38158269 0 0 Z " fill="#0D0D0D" transform="translate(62,20)"/>
<path d="M0 0 C4.20205951 1.50310824 6.0144913 4.50308331 8.328125 8.1015625 C8.72199402 8.69802582 9.11586304 9.29448914 9.52166748 9.9090271 C10.7732545 11.80873408 12.01170769 13.71660696 13.25 15.625 C14.09810498 16.91722713 14.94705406 18.2089007 15.796875 19.5 C17.87441977 22.66033514 19.94022944 25.82805462 22 29 C21.34 30.32 20.68 31.64 20 33 C18.68 33 17.36 33 16 33 C14.27155536 30.93177892 12.87775858 28.9920343 11.453125 26.7265625 C11.03705994 26.08762054 10.62099487 25.44867859 10.19232178 24.79037476 C9.31517074 23.43772725 8.44474274 22.08069992 7.58056641 20.71972656 C6.25423429 18.6316661 4.90851738 16.55724351 3.55859375 14.484375 C2.70977476 13.17002101 1.86207969 11.85494036 1.015625 10.5390625 C0.61257141 9.91504547 0.20951782 9.29102844 -0.20574951 8.64810181 C-3 4.23450314 -3 4.23450314 -3 2 C-2.01 1.34 -1.02 0.68 0 0 Z " fill="#0C0C0C" transform="translate(160,20)"/>
<path d="M0 0 C2.475 0.495 2.475 0.495 5 1 C5.33 1.99 5.66 2.98 6 4 C4.66038143 6.40675625 3.28256809 8.59745178 1.72265625 10.85546875 C1.05465248 11.84792351 1.05465248 11.84792351 0.37315369 12.86042786 C-1.05413474 14.97613281 -2.49554943 17.08176776 -3.9375 19.1875 C-4.90654365 20.61850136 -5.87465491 22.05013458 -6.84179688 23.48242188 C-9.21709997 26.9957098 -11.60511869 30.50003173 -14 34 C-15.65 33.01 -17.3 32.02 -19 31 C-17.31068081 25.82840322 -14.22686062 21.63812359 -11.1875 17.1875 C-7.34620014 11.52288847 -3.58169264 5.83309933 0 0 Z " fill="#090909" transform="translate(54,15)"/>
<path d="M0 0 C4.76114524 4.4486763 8.07681732 9.83041934 11.61987305 15.24536133 C12.81578967 17.06751228 14.02756925 18.87841899 15.24023438 20.68945312 C16.00099247 21.84570178 16.76079262 23.0025814 17.51953125 24.16015625 C18.21151611 25.20824463 18.90350098 26.25633301 19.61645508 27.33618164 C20.0730249 28.2152417 20.52959473 29.09430176 21 30 C20.67 30.99 20.34 31.98 20 33 C17.9375 33.6875 17.9375 33.6875 16 34 C8.95070014 24.58711136 2.47236041 14.81392725 -4 5 C-2.25 1.125 -2.25 1.125 0 0 Z " fill="#080808" transform="translate(39,101)"/>
<path d="M0 0 C4.05204951 1.35068317 4.87548363 3.39577729 7.1875 6.9375 C7.90292969 8.01902344 8.61835937 9.10054687 9.35546875 10.21484375 C11 13 11 13 11 15 C9.02 15.66 7.04 16.32 5 17 C2.03 12.71 -0.94 8.42 -4 4 C-2.68 2.68 -1.36 1.36 0 0 Z " fill="#111111" transform="translate(46,96)"/>
<path d="M0 0 C2.475 0.99 2.475 0.99 5 2 C4.4520917 6.2829452 2.97567196 8.85135641 0.4375 12.3125 C-0.20316406 13.19550781 -0.84382812 14.07851562 -1.50390625 14.98828125 C-2.24447266 15.98408203 -2.24447266 15.98408203 -3 17 C-4.98 16.34 -6.96 15.68 -9 15 C-7.61219205 11.10993227 -5.7847773 8.03441292 -3.375 4.6875 C-2.74335938 3.80449219 -2.11171875 2.92148438 -1.4609375 2.01171875 C-0.97882813 1.34785156 -0.49671875 0.68398437 0 0 Z " fill="#0F0F0F" transform="translate(177,96)"/>
<path d="M0 0 C2.475 0.99 2.475 0.99 5 2 C5 6.08481881 3.29880669 7.84704653 1 11.1875 C0.2575 12.27417969 -0.485 13.36085938 -1.25 14.48046875 C-1.8275 15.31191406 -2.405 16.14335938 -3 17 C-5.475 16.01 -5.475 16.01 -8 15 C-8 10.91518119 -6.29880669 9.15295347 -4 5.8125 C-3.2575 4.72582031 -2.515 3.63914062 -1.75 2.51953125 C-1.1725 1.68808594 -0.595 0.85664062 0 0 Z " fill="#0F0F0F" transform="translate(169,91)"/>
<path d="M0 0 C4.08288689 1.3609623 4.88685817 3.47953322 7.1875 7.0625 C7.90292969 8.16722656 8.61835938 9.27195312 9.35546875 10.41015625 C9.89816406 11.26480469 10.44085938 12.11945312 11 13 C9.68 14.32 8.36 15.64 7 17 C2.91711311 15.6390377 2.11314183 13.52046678 -0.1875 9.9375 C-1.26064453 8.28041016 -1.26064453 8.28041016 -2.35546875 6.58984375 C-2.89816406 5.73519531 -3.44085938 4.88054688 -4 4 C-2.68 2.68 -1.36 1.36 0 0 Z " fill="#0F0F0F" transform="translate(164,42)"/>
<path d="M0 0 C1.65 0.99 3.3 1.98 5 3 C3.6744419 6.62276315 2.05653045 9.63505348 -0.125 12.8125 C-0.93324219 13.99779297 -0.93324219 13.99779297 -1.7578125 15.20703125 C-2.37269531 16.09455078 -2.37269531 16.09455078 -3 17 C-5.16874252 16.49396008 -6.99967627 16.00016187 -9 15 C-7.61219205 11.10993227 -5.7847773 8.03441292 -3.375 4.6875 C-2.74335938 3.80449219 -2.11171875 2.92148438 -1.4609375 2.01171875 C-0.97882813 1.34785156 -0.49671875 0.68398437 0 0 Z " fill="#0E0E0E" transform="translate(166,113)"/>
<path d="M0 0 C4.18659858 3.82774727 7.37820862 7.94607874 10 13 C10 13.66 10 14.32 10 15 C7 17 7 17 4 17 C1.95703125 14.375 1.95703125 14.375 -0.1875 11 C-0.55552734 10.42765625 -0.92355469 9.8553125 -1.30273438 9.265625 C-2.21125071 7.84975538 -3.10686477 6.42562203 -4 5 C-2.25 1.125 -2.25 1.125 0 0 Z " fill="#0E0E0E" transform="translate(58,113)"/>
<path d="M0 0 C1.45194365 1.88052942 2.81364605 3.83136849 4.125 5.8125 C4.84945312 6.89144531 5.57390625 7.97039063 6.3203125 9.08203125 C8 12 8 12 8 15 C6.35 15.66 4.7 16.32 3 17 C1.6827656 15.23268551 0.37136412 13.46102239 -0.9375 11.6875 C-1.66839844 10.70136719 -2.39929688 9.71523438 -3.15234375 8.69921875 C-5 6 -5 6 -6 3 C-2.25 0 -2.25 0 0 0 Z " fill="#0E0E0E" transform="translate(155,25)"/>
<path d="M0 0 C2.475 0.99 2.475 0.99 5 2 C4.35256333 5.82990706 2.54688763 8.5283898 0.4375 11.75 C-0.20316406 12.73484375 -0.84382812 13.7196875 -1.50390625 14.734375 C-1.99761719 15.48203125 -2.49132812 16.2296875 -3 17 C-7.875 15.25 -7.875 15.25 -9 13 C-7.68889201 11.01989841 -6.37618664 9.04088963 -5.0625 7.0625 C-4.50272461 6.21655273 -4.50272461 6.21655273 -3.93164062 5.35351562 C-1.11328125 1.11328125 -1.11328125 1.11328125 0 0 Z " fill="#0D0D0D" transform="translate(158,108)"/>
<path d="M0 0 C1.65 0.99 3.3 1.98 5 3 C3.6744419 6.62276315 2.05653045 9.63505348 -0.125 12.8125 C-0.93324219 13.99779297 -0.93324219 13.99779297 -1.7578125 15.20703125 C-2.37269531 16.09455078 -2.37269531 16.09455078 -3 17 C-5.16874252 16.49396008 -6.99967627 16.00016187 -9 15 C-7.61219205 11.10993227 -5.7847773 8.03441292 -3.375 4.6875 C-2.74335938 3.80449219 -2.11171875 2.92148438 -1.4609375 2.01171875 C-0.97882813 1.34785156 -0.49671875 0.68398437 0 0 Z " fill="#0A0A0A" transform="translate(185,101)"/>
<path d="M0 0 C2.04296875 2.625 2.04296875 2.625 4.1875 6 C4.55552734 6.57234375 4.92355469 7.1446875 5.30273438 7.734375 C6.21125071 9.15024462 7.10686477 10.57437797 8 12 C7.1875 13.9375 7.1875 13.9375 6 16 C5.01 16.33 4.02 16.66 3 17 C1.49428254 14.87885041 -0.00468679 12.75346385 -1.5 10.625 C-1.92925781 10.02171875 -2.35851562 9.4184375 -2.80078125 8.796875 C-6 4.2265625 -6 4.2265625 -6 2 C-3 0 -3 0 0 0 Z " fill="#0A0A0A" transform="translate(182,32)"/>
<path d="M0 0 C3.80700968 1.49410358 5.49761624 3.6186877 7.8125 6.9375 C8.43769531 7.81277344 9.06289062 8.68804687 9.70703125 9.58984375 C10.13371094 10.38519531 10.56039062 11.18054688 11 12 C10 15 10 15 7.9375 16.1875 C7.298125 16.455625 6.65875 16.72375 6 17 C4.67981412 15.25579087 3.36911398 13.50439909 2.0625 11.75 C1.33160156 10.77546875 0.60070312 9.8009375 -0.15234375 8.796875 C-1.75345079 6.3732119 -2.57636238 4.8242508 -3 2 C-2.01 1.34 -1.02 0.68 0 0 Z " fill="#0A0A0A" transform="translate(168,15)"/>
<path d="M0 0 C1.65 0.99 3.3 1.98 5 3 C2.34151874 8.00099548 -0.25876024 12.7045025 -4 17 C-6.475 16.01 -6.475 16.01 -9 15 C-7.61219205 11.10993227 -5.7847773 8.03441292 -3.375 4.6875 C-2.74335938 3.80449219 -2.11171875 2.92148438 -1.4609375 2.01171875 C-0.97882813 1.34785156 -0.49671875 0.68398437 0 0 Z " fill="#090909" transform="translate(174,118)"/>
<path d="M0 0 C0.99 0.33 1.98 0.66 3 1 C2.34 1 1.68 1 1 1 C0.73880371 1.71639648 0.47760742 2.43279297 0.20849609 3.17089844 C-1.96806823 8.26625751 -5.27312525 12.67943456 -8.375 17.25 C-9.04789063 18.26835938 -9.72078125 19.28671875 -10.4140625 20.3359375 C-11.06890625 21.30273438 -11.72375 22.26953125 -12.3984375 23.265625 C-12.99317871 24.15024414 -13.58791992 25.03486328 -14.20068359 25.94628906 C-16.14454163 28.1649775 -17.11764706 28.66854924 -20 29 C-17.81165197 22.97510492 -14.16818712 18.06669506 -10.5625 12.8125 C-9.88123047 11.80251953 -9.19996094 10.79253906 -8.49804688 9.75195312 C-7.83998047 8.78837891 -7.18191406 7.82480469 -6.50390625 6.83203125 C-5.90392822 5.95264893 -5.3039502 5.0732666 -4.68579102 4.16723633 C-3 2 -3 2 0 0 Z " fill="#EEEEEE" transform="translate(69,24)"/>
<path d="M0 0 C0.33 0.99 0.66 1.98 1 3 C-0.85318359 6.648566 -3.19618103 9.98136957 -5.48583984 13.37036133 C-6.61605354 15.04921069 -7.72080825 16.74290399 -8.82421875 18.43945312 C-9.53449219 19.50228516 -10.24476562 20.56511719 -10.9765625 21.66015625 C-11.62705566 22.63605713 -12.27754883 23.61195801 -12.94775391 24.61743164 C-15.17278948 27.20060107 -16.76799118 28.04232877 -20 29 C-17.81165197 22.97510492 -14.16818712 18.06669506 -10.5625 12.8125 C-9.88123047 11.80251953 -9.19996094 10.79253906 -8.49804688 9.75195312 C-7.83998047 8.78837891 -7.18191406 7.82480469 -6.50390625 6.83203125 C-5.90392822 5.95264893 -5.3039502 5.0732666 -4.68579102 4.16723633 C-3 2 -3 2 0 0 Z " fill="#EEEEEE" transform="translate(61,19)"/>
<path d="M0 0 C1 3 1 3 0.14453125 4.7890625 C-0.51482422 5.69785156 -0.51482422 5.69785156 -1.1875 6.625 C-1.61417969 7.23601562 -2.04085937 7.84703125 -2.48046875 8.4765625 C-4.26692012 10.26760629 -5.53471865 10.60935585 -8 11 C-6.60366572 6.55711819 -4.39598172 4.13475236 -1 1 C-0.67 0.67 -0.34 0.34 0 0 Z " fill="#EDEDED" transform="translate(171,119)"/>
<path d="M0 0 C1 3 1 3 0.14453125 4.7890625 C-0.51482422 5.69785156 -0.51482422 5.69785156 -1.1875 6.625 C-1.61417969 7.23601562 -2.04085937 7.84703125 -2.48046875 8.4765625 C-4.26692012 10.26760629 -5.53471865 10.60935585 -8 11 C-6.60366572 6.55711819 -4.39598172 4.13475236 -1 1 C-0.67 0.67 -0.34 0.34 0 0 Z " fill="#EEEEEE" transform="translate(163,114)"/>
<path d="M0 0 C1 3 1 3 0.14453125 4.7890625 C-0.51482422 5.69785156 -0.51482422 5.69785156 -1.1875 6.625 C-1.61417969 7.23601562 -2.04085937 7.84703125 -2.48046875 8.4765625 C-4.26692012 10.26760629 -5.53471865 10.60935585 -8 11 C-6.60366572 6.55711819 -4.39598172 4.13475236 -1 1 C-0.67 0.67 -0.34 0.34 0 0 Z " fill="#EEEEEE" transform="translate(183,101)"/>
<path d="M0 0 C1 3 1 3 0.14453125 4.7890625 C-0.51482422 5.69785156 -0.51482422 5.69785156 -1.1875 6.625 C-1.61417969 7.23601562 -2.04085937 7.84703125 -2.48046875 8.4765625 C-4.26692012 10.26760629 -5.53471865 10.60935585 -8 11 C-6.60366572 6.55711819 -4.39598172 4.13475236 -1 1 C-0.67 0.67 -0.34 0.34 0 0 Z " fill="#EEEEEE" transform="translate(175,96)"/>
</svg>
