<?xml version="1.0" encoding="UTF-8"?>
<svg version="1.1" xmlns="http://www.w3.org/2000/svg" width="124" height="154">
<path d="M0 0 C7.82060642 6.36000581 15.06281212 13.45061843 22.37890625 20.375 C25.31135735 23.14740535 28.27713943 25.8757938 31.28515625 28.56640625 C32.04570313 29.24960937 32.80625 29.9328125 33.58984375 30.63671875 C34.95533027 31.8575743 36.32224036 33.07687502 37.69628906 34.28808594 C54.52952073 49.15441703 54.52952073 49.15441703 55.3359375 58.69921875 C55.54705491 68.09949906 54.32476006 74.63534206 47.91015625 81.69140625 C41.38475607 87.63615641 34.79577872 89.61692909 26.01171875 89.25 C16.50972814 88.03996098 10.7866801 82.2937095 4.09765625 75.87890625 C2.10683512 74.03550371 0.10164598 72.20796983 -1.90234375 70.37890625 C-2.92460459 69.44024075 -3.9467412 68.50143992 -4.96875 67.5625 C-7.5797071 65.1740479 -10.20475855 62.80316008 -12.83984375 60.44140625 C-15.65984067 57.91344784 -18.46135484 55.36805156 -21.23828125 52.79296875 C-21.81457275 52.25857178 -22.39086426 51.7241748 -22.98461914 51.17358398 C-24.10766812 50.1304019 -25.22933427 49.0857284 -26.34936523 48.03930664 C-28.71440064 45.84170737 -31.0438174 43.77122343 -33.6171875 41.8125 C-36.02789924 39.77266699 -37.21539018 38.04383558 -38.65234375 35.25390625 C-39.0596875 34.47789063 -39.46703125 33.701875 -39.88671875 32.90234375 C-43.11515276 26.47030983 -43.08015251 18.8507098 -41.03125 11.94140625 C-37.39622074 4.12311381 -31.85731358 -0.83534534 -23.90234375 -4.12109375 C-15.22843503 -6.56758083 -7.21519406 -5.27301531 0 0 Z " fill="#25A19D" transform="translate(55.90234375,25.12109375)"/>
<path d="M0 0 C8.6310913 1.51738423 16.976467 12.13447046 22.16015625 18.76171875 C26.12544075 25.75587946 26.31472013 33.88805878 24.3359375 41.58203125 C21.54128372 48.71447371 16.59021498 53.92585782 9.8125 57.4375 C2.91956882 60.15005043 -4.69777594 60.21834385 -11.625 57.5625 C-17.2074574 54.71081147 -21.50563749 50.29134614 -26 46 C-27.70207862 44.47216978 -29.41004062 42.95085757 -31.125 41.4375 C-31.87007812 40.77621094 -32.61515625 40.11492187 -33.3828125 39.43359375 C-33.91648438 38.96050781 -34.45015625 38.48742187 -35 38 C-33.37514186 33.62860745 -30.07989887 31.07838401 -26.6875 28.0625 C-25.54466469 27.03355994 -24.40272567 26.00362346 -23.26171875 24.97265625 C-22.70661621 24.4715332 -22.15151367 23.97041016 -21.57958984 23.45410156 C-19.31665436 21.37094179 -17.1604787 19.18867418 -15 17 C-14.175 16.19820312 -13.35 15.39640625 -12.5 14.5703125 C-7.79716872 9.97035566 -3.5963638 5.5144245 0 0 Z " fill="#030F6E" transform="translate(86,55)"/>
<path d="M0 0 C3.80713463 1.77987346 6.59415097 4.19574463 9.625 7.0625 C10.69754528 8.06159675 11.77046743 9.06028907 12.84375 10.05859375 C13.37613281 10.55601074 13.90851562 11.05342773 14.45703125 11.56591797 C16.65719821 13.61081998 18.88922175 15.6191673 21.125 17.625 C22.33929688 18.71554688 22.33929688 18.71554688 23.578125 19.828125 C24.37734375 20.54484375 25.1765625 21.2615625 26 22 C34.95858617 30.03382888 34.95858617 30.03382888 39.15625 33.90625 C39.69137207 34.39947754 40.22649414 34.89270508 40.77783203 35.40087891 C41.81681418 36.35981719 42.85433077 37.32034663 43.89013672 38.28271484 C45.97821591 40.21000983 48.04464207 42.03218382 50.3515625 43.6953125 C50.89554688 44.12585938 51.43953125 44.55640625 52 45 C52 45.66 52 46.32 52 47 C44.75513449 47.02526739 37.51028026 47.0428318 30.26538086 47.05493164 C27.79857967 47.05997356 25.33178148 47.06680691 22.86499023 47.07543945 C19.32795471 47.08751125 15.79095855 47.09322956 12.25390625 47.09765625 C11.14350479 47.10281754 10.03310333 47.10797882 8.88905334 47.11329651 C7.35757912 47.11340981 7.35757912 47.11340981 5.79516602 47.11352539 C4.43948265 47.11685631 4.43948265 47.11685631 3.05641174 47.12025452 C1 47 1 47 0 46 C-0.09295815 44.55710213 -0.11746513 43.10970215 -0.11352539 41.66381836 C-0.11344986 40.7429393 -0.11337433 39.82206024 -0.11329651 38.87327576 C-0.10813522 37.87224319 -0.10297394 36.87121063 -0.09765625 35.83984375 C-0.0962413 34.82024063 -0.09482635 33.80063751 -0.09336853 32.75013733 C-0.08775097 29.47922893 -0.0751955 26.20838787 -0.0625 22.9375 C-0.05748726 20.72591244 -0.05292396 18.51432382 -0.04882812 16.30273438 C-0.03777584 10.86846643 -0.02102063 5.43423803 0 0 Z " fill="#30A2A3" transform="translate(13,70)"/>
<path d="M0 0 C17.16 0 34.32 0 52 0 C52 15.51 52 31.02 52 47 C45.30277186 42.53518124 45.30277186 42.53518124 42.625 39.6875 C39.64506819 36.61667702 36.53154877 33.80163588 33.29296875 31.0078125 C30.53093492 28.5892684 27.8262556 26.11083901 25.125 23.625 C24.08989672 22.67442148 23.0547406 21.7239005 22.01953125 20.7734375 C20.12039877 19.02939782 18.22205308 17.28451597 16.32421875 15.5390625 C11.59287593 11.22713887 6.78501146 7.19214507 1.6171875 3.41015625 C1.08351562 2.94480469 0.54984375 2.47945312 0 2 C0 1.34 0 0.68 0 0 Z " fill="#2FA1A2" transform="translate(60,18)"/>
<path d="M0 0 C2.55468977 0.98257299 4.36063706 2.16832046 6.4375 3.9375 C7.118125 3.256875 7.79875 2.57625 8.5 1.875 C11.4375 -0.0625 11.4375 -0.0625 15.25 0.1875 C16.301875 0.435 17.35375 0.6825 18.4375 0.9375 C18.416875 1.96875 18.39625 3 18.375 4.0625 C18.31275059 7.8591484 18.31275059 7.8591484 19.125 11.1875 C19.4375 13.9375 19.4375 13.9375 18.28125 15.59765625 C15.82116609 17.38538672 14.25766114 17.2421816 11.25 17.125 C9.89841797 17.08439453 9.89841797 17.08439453 8.51953125 17.04296875 C7.83246094 17.00816406 7.14539063 16.97335938 6.4375 16.9375 C5.9425 15.9475 5.9425 15.9475 5.4375 14.9375 C4.4475 15.5975 3.4575 16.2575 2.4375 16.9375 C-1 17.375 -1 17.375 -4.5625 16.9375 C-7.40498268 14.386554 -8.47268797 12.9478853 -8.8125 9.125 C-8.73 8.403125 -8.6475 7.68125 -8.5625 6.9375 C-9.2225 6.9375 -9.8825 6.9375 -10.5625 6.9375 C-10.8925 5.9475 -11.2225 4.9575 -11.5625 3.9375 C-11.8925 7.5675 -12.2225 11.1975 -12.5625 14.9375 C-11.9025 14.9375 -11.2425 14.9375 -10.5625 14.9375 C-10.5625 15.5975 -10.5625 16.2575 -10.5625 16.9375 C-13.5325 16.9375 -16.5025 16.9375 -19.5625 16.9375 C-19.5625 13.6375 -19.5625 10.3375 -19.5625 6.9375 C-20.5525 6.9375 -21.5425 6.9375 -22.5625 6.9375 C-23.60255702 10.31768531 -23.64254482 13.4155279 -23.5625 16.9375 C-25.2125 16.9375 -26.8625 16.9375 -28.5625 16.9375 C-30.5425 13.4725 -30.5425 13.4725 -32.5625 9.9375 C-32.8925 11.5875 -33.2225 13.2375 -33.5625 14.9375 C-32.9025 14.9375 -32.2425 14.9375 -31.5625 14.9375 C-31.5625 15.5975 -31.5625 16.2575 -31.5625 16.9375 C-33.5425 16.9375 -35.5225 16.9375 -37.5625 16.9375 C-37.5625 16.2775 -37.5625 15.6175 -37.5625 14.9375 C-36.9025 14.9375 -36.2425 14.9375 -35.5625 14.9375 C-35.64628906 14.23882812 -35.73007812 13.54015625 -35.81640625 12.8203125 C-35.91824219 11.91023437 -36.02007812 11.00015625 -36.125 10.0625 C-36.22941406 9.15757812 -36.33382812 8.25265625 -36.44140625 7.3203125 C-36.5625 4.9375 -36.5625 4.9375 -35.5625 2.9375 C-36.2225 2.9375 -36.8825 2.9375 -37.5625 2.9375 C-37.5625 2.2775 -37.5625 1.6175 -37.5625 0.9375 C-34.9225 0.9375 -32.2825 0.9375 -29.5625 0.9375 C-28.9025 2.2575 -28.2425 3.5775 -27.5625 4.9375 C-27.5625 3.6175 -27.5625 2.2975 -27.5625 0.9375 C-21.2925 0.9375 -15.0225 0.9375 -8.5625 0.9375 C-8.2325 1.9275 -7.9025 2.9175 -7.5625 3.9375 C-6.4796875 2.9165625 -6.4796875 2.9165625 -5.375 1.875 C-2.5625 -0.0625 -2.5625 -0.0625 0 0 Z M-1.5625 2.9375 C-1.5625 6.8975 -1.5625 10.8575 -1.5625 14.9375 C-0.9025 14.9375 -0.2425 14.9375 0.4375 14.9375 C0.4375 10.9775 0.4375 7.0175 0.4375 2.9375 C-0.2225 2.9375 -0.8825 2.9375 -1.5625 2.9375 Z M11.4375 2.9375 C11.4375 3.5975 11.4375 4.2575 11.4375 4.9375 C13.9125 5.9275 13.9125 5.9275 16.4375 6.9375 C16.1075 5.6175 15.7775 4.2975 15.4375 2.9375 C14.1175 2.9375 12.7975 2.9375 11.4375 2.9375 Z M6.4375 6.9375 C6.4375 8.2575 6.4375 9.5775 6.4375 10.9375 C7.4275 10.6075 8.4175 10.2775 9.4375 9.9375 C8.4475 8.9475 7.4575 7.9575 6.4375 6.9375 Z M9.4375 10.9375 C9.7675 12.2575 10.0975 13.5775 10.4375 14.9375 C11.7575 14.9375 13.0775 14.9375 14.4375 14.9375 C14.4375 14.2775 14.4375 13.6175 14.4375 12.9375 C11.9625 11.9475 11.9625 11.9475 9.4375 10.9375 Z " fill="#181F74" transform="translate(77.5625,120.0625)"/>
<path d="M0 0 C2.49160332 1.00321207 3.97233473 2.26996091 5.92919922 4.10839844 C6.63367187 4.76839844 7.33814453 5.42839844 8.06396484 6.10839844 C8.7890625 6.80191406 9.51416016 7.49542969 10.26123047 8.20996094 C10.99792969 8.89574219 11.73462891 9.58152344 12.49365234 10.28808594 C17.94245738 15.44114166 17.94245738 15.44114166 19.07373047 18.83496094 C3.23373047 18.83496094 -12.60626953 18.83496094 -28.92626953 18.83496094 C-26.50105994 16.40975135 -24.77510226 15.00462057 -21.90673828 13.31152344 C-21.13136719 12.84746094 -20.35599609 12.38339844 -19.55712891 11.90527344 C-17.94032713 10.94889189 -16.32314518 9.99315272 -14.70556641 9.03808594 C-11.08186105 6.86805891 -7.73223427 4.76866675 -4.60205078 1.92089844 C-1.92626953 -0.16503906 -1.92626953 -0.16503906 0 0 Z " fill="#05106E" transform="translate(43.92626953125,97.1650390625)"/>
<path d="M0 0 C0.33 0 0.66 0 1 0 C1 14.19 1 28.38 1 43 C-3.22833795 41.94291551 -4.02845636 41.29088598 -6.875 38.25 C-10.0930079 34.899415 -13.3746219 31.90030248 -17 29 C-16.37763647 25.52579346 -15.02565332 23.3831718 -12.9375 20.5625 C-8.24597759 14.04487777 -3.59569083 7.19138165 0 0 Z " fill="#07116D" transform="translate(110,20)"/>
<path d="M0 0 C3.82097239 0.53069061 6.06171403 1.49701566 9 4 C9.680625 3.319375 10.36125 2.63875 11.0625 1.9375 C14 0 14 0 17.8125 0.25 C18.864375 0.4975 19.91625 0.745 21 1 C20.979375 2.03125 20.95875 3.0625 20.9375 4.125 C20.87525059 7.9216484 20.87525059 7.9216484 21.6875 11.25 C22 14 22 14 20.84375 15.66015625 C18.38366609 17.44788672 16.82016114 17.3046816 13.8125 17.1875 C12.46091797 17.14689453 12.46091797 17.14689453 11.08203125 17.10546875 C10.39496094 17.07066406 9.70789063 17.03585938 9 17 C8.67 16.34 8.34 15.68 8 15 C7.01 15.495 7.01 15.495 6 16 C4.73762269 13.47524538 4.90143596 11.68799534 4.9375 8.875 C4.94652344 7.96492188 4.95554687 7.05484375 4.96484375 6.1171875 C4.97644531 5.41851562 4.98804687 4.71984375 5 4 C3.35 4 1.7 4 0 4 C0 2.68 0 1.36 0 0 Z M14 3 C14 3.66 14 4.32 14 5 C16.475 5.99 16.475 5.99 19 7 C18.67 5.68 18.34 4.36 18 3 C16.68 3 15.36 3 14 3 Z M9 7 C9 8.32 9 9.64 9 11 C9.99 10.67 10.98 10.34 12 10 C11.01 9.01 10.02 8.02 9 7 Z M12 11 C12.33 12.32 12.66 13.64 13 15 C14.32 15 15.64 15 17 15 C17 14.34 17 13.68 17 13 C14.525 12.01 14.525 12.01 12 11 Z " fill="#1C2478" transform="translate(75,120)"/>
<path d="M0 0 C2.64 0 5.28 0 8 0 C8.66 1.32 9.32 2.64 10 4 C10 2.68 10 1.36 10 0 C13.3 0 16.6 0 20 0 C20 4.62 20 9.24 20 14 C19.67 14 19.34 14 19 14 C18.67 11.36 18.34 8.72 18 6 C17.01 6 16.02 6 15 6 C13.95994298 9.38018531 13.91995518 12.4780279 14 16 C12.35 16 10.7 16 9 16 C7.02 12.535 7.02 12.535 5 9 C4.67 10.65 4.34 12.3 4 14 C4.66 14 5.32 14 6 14 C6 14.66 6 15.32 6 16 C4.02 16 2.04 16 0 16 C0 15.34 0 14.68 0 14 C0.66 14 1.32 14 2 14 C1.91621094 13.30132812 1.83242188 12.60265625 1.74609375 11.8828125 C1.64425781 10.97273437 1.54242188 10.06265625 1.4375 9.125 C1.33308594 8.22007812 1.22867188 7.31515625 1.12109375 6.3828125 C1 4 1 4 2 2 C1.34 2 0.68 2 0 2 C0 1.34 0 0.68 0 0 Z " fill="#121A72" transform="translate(40,121)"/>
<path d="M0 0 C4.29 0 8.58 0 13 0 C13 1.65 13 3.3 13 5 C12.34 5 11.68 5 11 5 C11.33 6.65 11.66 8.3 12 10 C12.33 10 12.66 10 13 10 C13 11.98 13 13.96 13 16 C8.71 16 4.42 16 0 16 C0.33 15.01 0.66 14.02 1 13 C1.09308544 11.33541327 1.12996185 9.66718003 1.125 8 C1.12886719 6.700625 1.12886719 6.700625 1.1328125 5.375 C1.09594205 2.84988305 1.09594205 2.84988305 0 0 Z M8 2 C8.33 3.32 8.66 4.64 9 6 C9 5.34 9 4.68 9 4 C9.66 3.67 10.32 3.34 11 3 C10.01 2.67 9.02 2.34 8 2 Z M8 9 C8 10.65 8 12.3 8 14 C8.99 13.67 9.98 13.34 11 13 C11 12.34 11 11.68 11 11 C10.34 11 9.68 11 9 11 C8.67 10.34 8.34 9.68 8 9 Z " fill="#22287C" transform="translate(26,121)"/>
<path d="M0 0 C0 3 0 6 0 9 C0.3403125 9.928125 0.3403125 9.928125 0.6875 10.875 C1 13 1 13 -0.15625 15.1171875 C-2 17 -2 17 -4.48046875 17.390625 C-5.82044922 17.32101563 -5.82044922 17.32101563 -7.1875 17.25 C-8.08855469 17.21390625 -8.98960938 17.1778125 -9.91796875 17.140625 C-10.60503906 17.09421875 -11.29210938 17.0478125 -12 17 C-12 6.66666667 -12 6.66666667 -11 2 C-7.84891918 -0.78749457 -4.0179289 -0.15453573 0 0 Z M-7 3 C-7 3.66 -7 4.32 -7 5 C-4.525 5.99 -4.525 5.99 -2 7 C-2.66 5.68 -3.32 4.36 -4 3 C-4.99 3 -5.98 3 -7 3 Z M-10 11 C-9.34 12.32 -8.68 13.64 -8 15 C-6.68 15 -5.36 15 -4 15 C-4 14.34 -4 13.68 -4 13 C-5.98 12.34 -7.96 11.68 -10 11 Z " fill="#1C2376" transform="translate(25,120)"/>
<path d="M0 0 C1.98 0 3.96 0 6 0 C7.32 5.28 8.64 10.56 10 16 C7.36 16 4.72 16 2 16 C2 15.34 2 14.68 2 14 C1.34 14 0.68 14 0 14 C0 14.66 0 15.32 0 16 C-1.65 16 -3.3 16 -5 16 C-3.41078475 10.63904723 -1.81027062 5.29156027 0 0 Z M0 7 C0 7.99 0 8.98 0 10 C0.66 9.67 1.32 9.34 2 9 C1.34 8.34 0.68 7.68 0 7 Z " fill="#0B126D" transform="translate(102,121)"/>
<path d="M0 0 C0.04254356 1.99954746 0.04080783 4.00041636 0 6 C-0.33 6.33 -0.66 6.66 -1 7 C-1.04080783 8.99958364 -1.04254356 11.00045254 -1 13 C-7.55339806 11.54368932 -7.55339806 11.54368932 -9.4375 9.25 C-10.16166061 6.35335755 -10.32305614 3.97211652 -10 1 C-6.1496895 -1.56687367 -4.41430237 -0.83288724 0 0 Z M-7 2 C-7 2.66 -7 3.32 -7 4 C-4.525 4.99 -4.525 4.99 -2 6 C-2.33 4.68 -2.66 3.36 -3 2 C-4.32 2 -5.64 2 -7 2 Z " fill="#0E156E" transform="translate(96,121)"/>
<path d="M0 0 C1.32 0 2.64 0 4 0 C4 4.62 4 9.24 4 14 C4.99 14 5.98 14 7 14 C7 14.66 7 15.32 7 16 C4.03 16 1.06 16 -2 16 C-2 15.34 -2 14.68 -2 14 C-1.34 14 -0.68 14 0 14 C0 9.38 0 4.76 0 0 Z " fill="#080F6E" transform="translate(60,121)"/>
<path d="M0 0 C3.3 0 6.6 0 10 0 C10 4.62 10 9.24 10 14 C9.67 14 9.34 14 9 14 C8.67 11.36 8.34 8.72 8 6 C7.01 6 6.02 6 5 6 C4.01 7.485 4.01 7.485 3 9 C1.5 7.875 1.5 7.875 0 6 C-0.1875 2.8125 -0.1875 2.8125 0 0 Z " fill="#3D4386" transform="translate(50,121)"/>
<path d="M0 0 C0.66 0.66 1.32 1.32 2 2 C1.67028521 5.29714793 1.3773161 6.6226839 -1 9 C-3.3828125 9.1953125 -3.3828125 9.1953125 -6.125 9.125 C-7.49011719 9.09792969 -7.49011719 9.09792969 -8.8828125 9.0703125 C-9.58148438 9.04710937 -10.28015625 9.02390625 -11 9 C-11.33 6.69 -11.66 4.38 -12 2 C-10.0625 2.3125 -10.0625 2.3125 -8 3 C-7.67 3.99 -7.34 4.98 -7 6 C-4.98491642 6.73323796 -4.98491642 6.73323796 -3 7 C-2.67 6.34 -2.34 5.68 -2 5 C-1.34 5.33 -0.68 5.66 0 6 C0 4.02 0 2.04 0 0 Z " fill="#4D528F" transform="translate(95,128)"/>
<path d="M0 0 C1.98 0 3.96 0 6 0 C6 1.65 6 3.3 6 5 C5.34 5 4.68 5 4 5 C4 6.98 4 8.96 4 11 C3.34 11 2.68 11 2 11 C1.34 11.99 0.68 12.98 0 14 C0 9.38 0 4.76 0 0 Z M1 2 C1.33 3.32 1.66 4.64 2 6 C2 5.34 2 4.68 2 4 C2.66 3.67 3.32 3.34 4 3 C3.01 2.67 2.02 2.34 1 2 Z " fill="#505593" transform="translate(33,121)"/>
<path d="M0 0 C2.375 0.25 2.375 0.25 5 1 C6.375 2.8125 6.375 2.8125 7 5 C6.625 7.25 6.625 7.25 6 9 C5.34 7.68 4.68 6.36 4 5 C3.67 6.65 3.34 8.3 3 10 C3.66 10 4.32 10 5 10 C5 10.66 5 11.32 5 12 C3.02 12 1.04 12 -1 12 C-1 11.34 -1 10.68 -1 10 C-0.34 10 0.32 10 1 10 C0.67 6.7 0.34 3.4 0 0 Z " fill="#383D85" transform="translate(41,125)"/>
<path d="M0 0 C0.33 0 0.66 0 1 0 C1.2236337 1.41433206 1.42826476 2.83167618 1.625 4.25 C1.74101563 5.03890625 1.85703125 5.8278125 1.9765625 6.640625 C2.00348792 9.35111684 1.27220983 10.64981084 0 13 C0 13.99 0 14.98 0 16 C-1.65 16 -3.3 16 -5 16 C-3.41078475 10.63904723 -1.81027062 5.29156027 0 0 Z " fill="#434A8D" transform="translate(102,121)"/>
<path d="M0 0 C1.32 0.33 2.64 0.66 4 1 C3.16855469 1.81404297 3.16855469 1.81404297 2.3203125 2.64453125 C1.23363281 3.71767578 1.23363281 3.71767578 0.125 4.8125 C-0.59429688 5.52019531 -1.31359375 6.22789063 -2.0546875 6.95703125 C-4.15358937 9.04399194 -4.15358937 9.04399194 -6 12 C-6.66 12 -7.32 12 -8 12 C-6.49087042 7.01987239 -3.44338151 3.75740058 0 0 Z " fill="#3FACA9" transform="translate(24,25)"/>
<path d="M0 0 C0.33 0 0.66 0 1 0 C1 4.62 1 9.24 1 14 C3.99332739 13.0022242 4.94766315 12.2477975 7 10 C7 11.98 7 13.96 7 16 C4.69 16 2.38 16 0 16 C0 10.72 0 5.44 0 0 Z " fill="#192177" transform="translate(32,121)"/>
<path d="M0 0 C0.33 0 0.66 0 1 0 C1.66 2.97 2.32 5.94 3 9 C0.36 9 -2.28 9 -5 9 C-5 7.68 -5 6.36 -5 5 C-3.68 5 -2.36 5 -1 5 C-0.67 3.35 -0.34 1.7 0 0 Z " fill="#262E7D" transform="translate(109,128)"/>
<path d="M0 0 C0.99 0.33 1.98 0.66 3 1 C3 4.96 3 8.92 3 13 C1.68 13.33 0.36 13.66 -1 14 C-0.67 9.38 -0.34 4.76 0 0 Z " fill="#0B106D" transform="translate(78,123)"/>
<path d="M0 0 C3 1 3 1 4 3 C5.97888961 3.72693904 7.97954558 4.39816251 10 5 C10 5.33 10 5.66 10 6 C6.7 6 3.4 6 0 6 C0 4.02 0 2.04 0 0 Z " fill="#333981" transform="translate(13,131)"/>
<path d="M0 0 C2.88575819 0.39803561 3.82189513 0.79009069 5.75 3.0625 C6.36875 4.0215625 6.36875 4.0215625 7 5 C6.01 5.495 6.01 5.495 5 6 C5 5.34 5 4.68 5 4 C1.62537285 4.54723683 -0.08235 5.0549 -3 7 C-3 3.48283697 -2.17554415 2.62878252 0 0 Z " fill="#182275" transform="translate(86,55)"/>
<path d="M0 0 C2.31 0 4.62 0 7 0 C7 2.31 7 4.62 7 7 C6.34 7 5.68 7 5 7 C4.34 6.01 3.68 5.02 3 4 C2.01 3.34 1.02 2.68 0 2 C0 1.34 0 0.68 0 0 Z " fill="#404688" transform="translate(18,120)"/>
<path d="M0 0 C0.99 0.33 1.98 0.66 3 1 C3 2.98 3 4.96 3 7 C1.35 7 -0.3 7 -2 7 C-1.34 4.69 -0.68 2.38 0 0 Z " fill="#2F3581" transform="translate(51,130)"/>
<path d="M0 0 C2.31 0.33 4.62 0.66 7 1 C7 2.98 7 4.96 7 7 C6.34 7 5.68 7 5 7 C4.67 5.68 4.34 4.36 4 3 C3.01 3 2.02 3 1 3 C0.67 2.01 0.34 1.02 0 0 Z " fill="#3C4186" transform="translate(89,120)"/>
<path d="M0 0 C2.64 0 5.28 0 8 0 C8 0.66 8 1.32 8 2 C11.3 2 14.6 2 18 2 C18 2.33 18 2.66 18 3 C5.33029613 3.3690205 5.33029613 3.3690205 0 1 C0 0.67 0 0.34 0 0 Z " fill="#5B5FA0" transform="translate(73,111)"/>
<path d="M0 0 C0.66 0.66 1.32 1.32 2 2 C1.67028521 5.29714793 1.3773161 6.6226839 -1 9 C-1.99 9 -2.98 9 -4 9 C-3.34 7.68 -2.68 6.36 -2 5 C-1.34 5.33 -0.68 5.66 0 6 C0 4.02 0 2.04 0 0 Z " fill="#373B83" transform="translate(95,128)"/>
<path d="M0 0 C2.31 1.98 4.62 3.96 7 6 C6.34 6.66 5.68 7.32 5 8 C2.5 5.6875 2.5 5.6875 0 3 C0 2.01 0 1.02 0 0 Z " fill="#43AEAB" transform="translate(33,87)"/>
<path d="M0 0 C2.31 1.98 4.62 3.96 7 6 C6.34 6.66 5.68 7.32 5 8 C2.5 5.6875 2.5 5.6875 0 3 C0 2.01 0 1.02 0 0 Z " fill="#3A3C86" transform="translate(98,64)"/>
<path d="M0 0 C2.31 1.98 4.62 3.96 7 6 C6.34 6.66 5.68 7.32 5 8 C2.5 5.6875 2.5 5.6875 0 3 C0 2.01 0 1.02 0 0 Z " fill="#41ADAA" transform="translate(75,43)"/>
<path d="M0 0 C2.31 1.98 4.62 3.96 7 6 C6.34 6.66 5.68 7.32 5 8 C2.5 5.6875 2.5 5.6875 0 3 C0 2.01 0 1.02 0 0 Z " fill="#43ADAA" transform="translate(63,32)"/>
<path d="M0 0 C3.37462715 0.54723683 5.08235 1.0549 8 3 C7.67 3.66 7.34 4.32 7 5 C6.67 4.67 6.34 4.34 6 4 C4.00041636 3.95919217 1.99954746 3.95745644 0 4 C0 2.68 0 1.36 0 0 Z " fill="#585C97" transform="translate(75,120)"/>
<path d="M0 0 C3.25543229 0.34879632 4.01873107 1.02133261 6.25 3.5625 C6.8275 4.366875 7.405 5.17125 8 6 C7.01 6.495 7.01 6.495 6 7 C6 6.34 6 5.68 6 5 C5.38125 4.731875 4.7625 4.46375 4.125 4.1875 C2 3 2 3 0 0 Z " fill="#30367F" transform="translate(42,97)"/>
<path d="M0 0 C0.66 0.66 1.32 1.32 2 2 C0.35 3.65 -1.3 5.3 -3 7 C-3 3 -3 3 -1.5 1.25 C-1.005 0.8375 -0.51 0.425 0 0 Z " fill="#121A72" transform="translate(55,87)"/>
<path d="M0 0 C3.0916909 2.52956528 3.90931332 5.22454612 5 9 C2 8 2 8 0.8125 6.1875 C0 4 0 4 0 0 Z " fill="#40458B" transform="translate(105,71)"/>
</svg>
